<?xml version="1.0" encoding="utf-8"?>
<!-- Generator: Adobe Illustrator 21.0.2, SVG Export Plug-In . SVG Version: 6.00 Build 0)  -->
<svg version="1.1" id="Layer_1" xmlns="http://www.w3.org/2000/svg" xmlns:xlink="http://www.w3.org/1999/xlink" x="0px" y="0px"
	 width="16px" height="16px" viewBox="0 0 16 16" style="enable-background:new 0 0 16 16;" xml:space="preserve">
<path d="M3,2v1h2V2H3 M5,1V0H3v1H5 M11,2V1H5v1H11 M13,3V2h-2v1H13 M13,1V0h-2v1H13 M16,3c0-0.5-0.2-1-0.6-1.4C15.1,1.2,14.6,1,14,1
	h-1v1h1c0.3,0,0.6,0.1,0.7,0.3C14.9,2.5,15,2.7,15,3v1H1V3c0-0.3,0.1-0.5,0.3-0.7C1.5,2.1,1.7,2,2,2h1V1H2C1.5,1,1,1.2,0.6,1.6
	S0,2.5,0,3v11c0,0.6,0.2,1.1,0.6,1.4C1,15.8,1.5,16,2,16h12c0.6,0,1.1-0.2,1.4-0.6c0.4-0.3,0.6-0.8,0.6-1.4V3 M1.3,14.7
	C1.1,14.5,1,14.3,1,14V5h14v9c0,0.3-0.1,0.5-0.3,0.7C14.6,14.9,14.3,15,14,15H2C1.7,15,1.5,14.9,1.3,14.7 M11.4,7.1l-0.9-0.5
	l-2.7,4.6L6.3,9.6l-0.7,0.7l2.5,2.4L11.4,7.1z"/>
</svg>
