<?xml version="1.0" encoding="utf-8"?>
<!-- Generator: Adobe Illustrator 21.0.2, SVG Export Plug-In . SVG Version: 6.00 Build 0)  -->
<svg version="1.1" id="Layer_2" xmlns="http://www.w3.org/2000/svg" xmlns:xlink="http://www.w3.org/1999/xlink" x="0px" y="0px"
	 width="105px" height="87.8px" viewBox="0 0 105 87.8" style="enable-background:new 0 0 105 87.8;" xml:space="preserve">
<path d="M104.5,16.5c-0.5-0.6-1.2-0.9-2-0.9H24.1L21.1,2c0,0,0,0,0,0l0,0c0,0,0-0.1,0-0.1c0-0.1-0.1-0.2-0.1-0.3
	c0-0.1-0.1-0.1-0.1-0.2c0-0.1-0.1-0.2-0.1-0.2c0-0.1-0.1-0.1-0.2-0.2c-0.1-0.1-0.1-0.1-0.2-0.2c-0.1-0.1-0.1-0.1-0.2-0.1
	c-0.1-0.1-0.1-0.1-0.2-0.2c-0.1,0-0.1-0.1-0.2-0.1c-0.1,0-0.1-0.1-0.2-0.1c-0.1,0-0.2-0.1-0.3-0.1c-0.1,0-0.1,0-0.2-0.1
	c-0.1,0-0.3,0-0.4,0c0,0-0.1,0-0.1,0h0c0,0,0,0,0,0H2.5C1.1,0,0,1.1,0,2.5C0,3.9,1.1,5,2.5,5h14.2l15,69.5c-0.9,1.4-1.5,3-1.5,4.8
	c0,4.7,3.8,8.5,8.5,8.5c3.8,0,7.1-2.5,8.1-6h31.7c1.1,3.5,4.3,6,8.1,6c4.7,0,8.5-3.8,8.5-8.5s-3.8-8.5-8.5-8.5c-3.8,0-7.1,2.5-8.1,6
	H46.8c-1.1-3.5-4.3-6-8.1-6c-0.9,0-1.8,0.1-2.6,0.4l-1.6-7.4h58.4c1.2,0,2.2-0.8,2.4-2l9.6-43.2C105.1,17.9,104.9,17.1,104.5,16.5z
	 M86.6,75.8c1.9,0,3.5,1.6,3.5,3.5s-1.6,3.5-3.5,3.5c-1.9,0-3.5-1.6-3.5-3.5S84.7,75.8,86.6,75.8z M42.1,79.3c0,1.9-1.6,3.5-3.5,3.5
	s-3.5-1.6-3.5-3.5s1.6-3.5,3.5-3.5S42.1,77.4,42.1,79.3z M90.9,58.8H33.4l-8.2-38.2h74.2L90.9,58.8z"/>
</svg>
