<?xml version="1.0" encoding="utf-8"?>
<!-- Generator: Adobe Illustrator 21.0.2, SVG Export Plug-In . SVG Version: 6.00 Build 0)  -->
<svg version="1.1" id="Layer_2" xmlns="http://www.w3.org/2000/svg" xmlns:xlink="http://www.w3.org/1999/xlink" x="0px" y="0px"
	 width="105.5px" height="103.5px" viewBox="0 0 105.5 103.5" style="enable-background:new 0 0 105.5 103.5;" xml:space="preserve"
	>
<path d="M104.8,99.2L62.3,56.8c4.8-6,7.7-13.6,7.7-21.8C70,15.7,54.3,0,35,0S0,15.7,0,35s15.7,35,35,35c9.3,0,17.7-3.6,24-9.5
	l42.3,42.3c0.5,0.5,1.1,0.7,1.8,0.7c0.6,0,1.3-0.2,1.8-0.7C105.7,101.8,105.7,100.2,104.8,99.2z M35,65C18.5,65,5,51.5,5,35
	S18.5,5,35,5s30,13.5,30,30S51.5,65,35,65z"/>
</svg>
