<?xml version="1.0" encoding="utf-8"?>
<!-- Generator: Adobe Illustrator 21.0.2, SVG Export Plug-In . SVG Version: 6.00 Build 0)  -->
<svg version="1.1" id="All_glyphs" xmlns="http://www.w3.org/2000/svg" xmlns:xlink="http://www.w3.org/1999/xlink" x="0px" y="0px"
	 width="96px" height="96px" viewBox="0 0 96 96" style="enable-background:new 0 0 96 96;" xml:space="preserve">
<path d="M48,0C21.5,0,0,21.5,0,48c0,26.5,21.5,48,48,48c26.5,0,48-21.5,48-48C96,21.5,74.5,0,48,0z M67.5,39.3c0,0.4,0,0.8,0,1.2
	c0,12.5-9.5,26.9-26.9,26.9c-5.3,0-10.3-1.6-14.5-4.2c0.7,0.1,1.5,0.1,2.3,0.1c4.4,0,8.5-1.5,11.7-4c-4.1-0.1-7.6-2.8-8.8-6.6
	c0.6,0.1,1.2,0.2,1.8,0.2c0.9,0,1.7-0.1,2.5-0.3c-4.3-0.9-7.6-4.7-7.6-9.3c0,0,0-0.1,0-0.1c1.3,0.7,2.7,1.1,4.3,1.2
	c-2.5-1.7-4.2-4.6-4.2-7.9c0-1.7,0.5-3.4,1.3-4.8c4.7,5.7,11.6,9.5,19.5,9.9c-0.2-0.7-0.2-1.4-0.2-2.2c0-5.2,4.2-9.5,9.5-9.5
	c2.7,0,5.2,1.1,6.9,3c2.2-0.4,4.2-1.2,6-2.3c-0.7,2.2-2.2,4.1-4.2,5.2c1.9-0.2,3.7-0.7,5.4-1.5C71,36.3,69.4,38,67.5,39.3z"/>
</svg>
